<svg xmlns="http://www.w3.org/2000/svg" viewBox="0 0 300 300" shape-rendering="geometricPrecision" text-rendering="geometricPrecision"><circle r="27.5" transform="matrix(3.65832 0 0 3.35416 149.996 171.562)"/><circle r="27.5" transform="matrix(3.2353 0 0 2.9842 150.002 173.015)" fill="#fff"/><circle r="27.5" transform="matrix(1.45105 0 0 1.5196 149.998 58.3)"/><path d="M129.777 36.75c-9.151 9.753-11.015 24.84-4.544 36.784s19.663 17.768 32.164 14.198 21.194-15.643 21.194-29.435h-28.595z" fill="#0088fe"/><path d="M149.996 27.825c-7.585-.01-14.862 3.202-20.219 8.926l20.22 21.546z" fill="#2ecc71"/><path d="M149.996 27.825v30.472h28.595c0-8.081-3.013-15.832-8.375-21.547s-12.636-8.925-20.22-8.925z" fill="#00c49f"/><circle r="27.5" transform="matrix(.34881 0 0 .34966 121.413 146.475)"/><circle r="27.5" transform="matrix(.34881 0 0 .34966 178.413 146.475)"/><circle r="27.5" transform="matrix(1.24904 0 0 1.21963 150.002 189.63)"/><circle r="27.5" transform="matrix(.89672 0 0 .81217 150.002 190.75)" fill="#fff"/><path transform="matrix(1.20179 0 0 .72238 88.169 154.63)" fill="none" stroke="#000" stroke-width="7" stroke-linecap="round" stroke-linejoin="round" d="M43.25 40.75v18.5"/><path transform="matrix(1.20179 0 0 .72238 108.169 154.63)" fill="none" stroke="#000" stroke-width="7" stroke-linecap="round" stroke-linejoin="round" d="M43.25 40.75v18.5"/><path transform="matrix(2.86523 0 0 -1 6.734 325.308)" fill="none" stroke="#000" stroke-width="10" stroke-linecap="round" stroke-miterlimit="10" d="M22.83 50h54.34"/><path d="M127.342 110.76c13.146-1.597 32.42-4.527 45.32 0" transform="matrix(1 0 0 .91286 0 9.826)" fill="none" stroke="#000" stroke-width="12" stroke-linecap="round"/><path d="M73.148 141.126C38.27 98.361 50.56 40.303 110.094 109.6M227.094 141.126c34.877-42.765 22.587-100.823-36.946-31.527" fill="#fff" stroke="#000" stroke-width="12" stroke-linecap="round"/><path d="M75.148 124.235c-16.426-31.389-7.55-43.375 17.63-16.797-6.924 3.283-15.192 11.791-17.63 16.797zM224.778 123.76c16.332-32.06 7.919-41.887-16.63-15.672 5.488 2.306 13.364 10.435 16.63 15.672z"/><path d="M87.015 230.607c-11.345 13.817-10.307 41.176 6.763 42.421 16.783 3.806 28.666-15.068 27.623-23.947M213.401 230.607c11.345 13.817 10.308 41.176-6.763 42.421-16.782 3.806-28.666-15.068-27.623-23.947" fill="#fff" stroke="#000" stroke-width="12"/><path d="M121.413 251.061c12.193 8.417 41.167 6.757 57.552 0" fill="none" stroke="#000" stroke-width="12" stroke-linecap="round"/></svg>